<svg id="Capa_1" data-name="Capa 1" xmlns="http://www.w3.org/2000/svg" viewBox="0 0 513 473.04"><defs><style>.cls-1{fill:#99258d;stroke:#99258d;stroke-miterlimit:10;}</style></defs><title>favoriet-gevuld</title><path class="cls-1" d="M472.62,59.36a133.92,133.92,0,0,0-95-39.38c-35.74,0-65.1,12-87.53,32.82C275.88,66.1,264.39,82.89,256,102.39c-8.39-19.5-19.88-36.27-34.28-49.59C199.29,32,170.12,20,134.38,20A134.45,134.45,0,0,0,0,154.37c0,63.82,69.28,137.85,118.7,190.54,9.48,10.22,18.23,19.51,25,27L246.33,487.68a8.09,8.09,0,0,0,1.28,1.1,12.74,12.74,0,0,0,18.05-1.1L368.31,371.9c7.48-8.39,15.68-17.14,24.62-26.62C442.35,292.58,512,218,512,154.37A133.84,133.84,0,0,0,472.62,59.36ZM374.34,327.77c-9.48,10-18.23,19.51-25.16,27.17L256,460l-93.18-105c-7.65-8.75-16.22-17.87-25.34-27.53C91,277.81,25.71,208.15,25.71,154.37A108.95,108.95,0,0,1,134.38,45.69c29,0,52.33,9.48,70,25.89,19.51,18.06,32.64,44.68,39,76.41a12.91,12.91,0,0,0,25.34-.37c6.39-31.73,19.52-58.17,38.84-76,17.69-16.41,41-25.89,70-25.89A108.64,108.64,0,0,1,486.3,154.37C486.3,208.16,420.66,278.18,374.34,327.77Z" transform="translate(0.5 -19.48)"/><path class="cls-1" d="M486.3,154.37c0,53.79-65.64,123.81-112,173.4-9.48,10-18.23,19.51-25.16,27.17L256,460l-93.18-105c-7.65-8.75-16.22-17.87-25.34-27.53C91,277.81,25.71,208.15,25.71,154.37A108.95,108.95,0,0,1,134.38,45.69c29,0,52.33,9.48,70,25.89,19.51,18.06,32.64,44.68,39,76.41a12.91,12.91,0,0,0,25.34-.37c6.39-31.73,19.52-58.17,38.84-76,17.69-16.41,41-25.89,70-25.89A108.64,108.64,0,0,1,486.3,154.37Z" transform="translate(0.5 -19.48)"/></svg>