<svg id="Laag_1" data-name="Laag 1" xmlns="http://www.w3.org/2000/svg" viewBox="0 0 1558.49 817.99"><defs><style>.cls-1,.cls-6{fill:#991782;}.cls-1,.cls-2{fill-rule:evenodd;}.cls-2,.cls-4{fill:#fff;}.cls-3{fill:none;}.cls-4,.cls-6{isolation:isolate;}.cls-4{font-size:119.2px;font-family:MuseoSansDisplay-Hairline, Museo Sans Display;font-weight:100;}.cls-5{letter-spacing:-0.01em;}.cls-6{font-size:670.48px;font-family:MuseoSansDisplay-Light, Museo Sans Display;font-weight:300;}</style></defs><title>sitelogo2</title><path class="cls-1" d="M1531.66,409c0,225.88-183.12,409-409,409s-409-183.12-409-409S896.78,0,1122.66,0h0c225.83.12,408.87,183.16,409,409" transform="translate(26.84)"/><path class="cls-2" d="M903.71,421.66s-4.47-.75-6-.75-3.72-.74-3.72-2.23h0c0-1.49,3-2.24,3.72-2.24s6-.74,6-.74l97.6-4.47,21.6-71.52V336a9.83,9.83,0,0,0-9.68-9.69H964.8a10.57,10.57,0,0,0-9.68,6.71v.74L938,398.56l-19.37-64.81-.74-2.23a9.69,9.69,0,0,0-8.94-6h-44.7a10.56,10.56,0,0,0-9.68,6.7l-19.37,65.56-16.39-64.07V333a10.58,10.58,0,0,0-9.69-6.71H759.93a9.83,9.83,0,0,0-9.68,9.69,4.5,4.5,0,0,0,.74,3l47.68,159.42v.75a10.58,10.58,0,0,0,9.69,6.7h46.93a10.56,10.56,0,0,0,9.68-6.7l22.35-69.29,21.61,69.29h0v1.49a9.69,9.69,0,0,0,8.94,6h47.68a10.59,10.59,0,0,0,9.68-6.71l.75-1.49h0l22.35-73-94.62-3.72" transform="translate(26.84)"/><path class="cls-2" d="M1092.86,407.5a29.15,29.15,0,0,1,20.86-22.35c.75-5.21,3-34.27,3.73-36.5a3.29,3.29,0,0,1,3-2.24h0a3.29,3.29,0,0,1,3,2.24c.74,2.23,3.72,31.29,3.72,36.5A30.25,30.25,0,0,1,1148,407.5l72.26,3v-.74c-3-47.68-43.2-87.16-99.82-87.16s-97.59,40.22-100.57,87.9l73-3" transform="translate(26.84)"/><path class="cls-2" d="M1146.5,429.11a28.75,28.75,0,0,1-26.07,18.62,28,28,0,0,1-26.08-18.62l-73.75-3c5.22,46.19,44.7,83.43,99.83,83.43s94.61-37.24,99.82-83.43l-73.75,3" transform="translate(26.84)"/><path class="cls-2" d="M1481.74,327.05h-48.42a10.58,10.58,0,0,0-9.69,6.7v.75l-17.13,64.81-19.37-64.81-.75-2.24a9.68,9.68,0,0,0-8.93-6h-44.7a10.58,10.58,0,0,0-9.69,6.71l-19.37,65.55L1287.3,334.5v-.75a10.56,10.56,0,0,0-9.68-6.7H1227.7a9.83,9.83,0,0,0-9.68,9.68,4.48,4.48,0,0,0,.74,3l21.61,71.52,96.85,4.47s4.47.74,6,.74,3.72.75,3.72,2.24h0c0,1.49-3,2.23-3.72,2.23s-6,.75-6,.75l-93.13,3.72,22.35,73.76v.74a10.6,10.6,0,0,0,9.69,6.71h46.93a10.6,10.6,0,0,0,9.69-6.71l22.35-69.28,21.6,69.28h0v1.49a9.68,9.68,0,0,0,8.94,6h47.68a10.56,10.56,0,0,0,9.68-6.7l.75-1.49h0l48.5-158.69v-.74c0-.74.74-1.49.74-3a11.24,11.24,0,0,0-11.17-9.68" transform="translate(26.84)"/><rect class="cls-3" x="1019.05" y="522.23" width="457.42" height="197.42"/><text class="cls-4" transform="translate(1019.05 605.59)"><tspan class="cls-5">v</tspan><tspan x="51.49" y="0">erhalen</tspan></text><text class="cls-6" transform="translate(0 654.76) scale(0.94 1)">99</text></svg>